# xmcd CD database file
#
# Track frame offsets:
#	200
#	13152
#	24952
#	38717
#	51407
#	64765
#	81562
#	92960
#	106947
#	120342
#	135202
#	148790
#	160845
#	174840
#
# Disc length: 2493 seconds
#
# Revision: 0
# Processed by: cddbd v1.5.2PL0 Copyright (c) Steve Scherf et al.
# Submitted via: CDex 1.51
#
DISCID=b109bb0e
DTITLE=Charlie Parker - 'The Bird' Plays Greatest Hits
DYEAR=1900
DGENRE=Jazz
TTITLE0=KO KO
TTITLE1=Groovin' High
TTITLE2=Hot House
TTITLE3=Stupendous
TTITLE4=Cheryl
TTITLE5=Congo Blues
TTITLE6=Street Beat
TTITLE7=Red Cross
TTITLE8=Ornthology
TTITLE9=Lovers Man
TTITLE10=Cheers
TTITLE11=Birds Nest
TTITLE12=Billy's Bounce
TTITLE13=Chasin' The Bird
EXTD=
EXTT0=
EXTT1=
EXTT2=
EXTT3=
EXTT4=
EXTT5=
EXTT6=
EXTT7=
EXTT8=
EXTT9=
EXTT10=
EXTT11=
EXTT12=
EXTT13=
PLAYORDER=
